# xmcd
#
# Track frame offsets: 
#        150
#        15211
#        30021
#        42391
#        63385
#        77690
#        94115
#        113293
#        126476
#        141987
#        157198
#        170375
#        188175
#        200272
#
# Disc length: 2886 seconds
#
# Revision: 0
# Processed by: cddbd v1.5.2PL0 Copyright (c) Steve Scherf et al.
# Submitted via: ExactAudioCopy v1.0b3
#
DISCID=ac0b440e
DTITLE=Louis Bérubé - Nos Amours
DYEAR=1900
DGENRE=Country
TTITLE0=Je ne suis que moi
TTITLE1=J'ai tuné ma guitare
TTITLE2=Mais il y a cette musique
TTITLE3=C'était moi
TTITLE4=U-turn
TTITLE5=Une vraie grippe d'homme
TTITLE6=Quand le soleil se cache
TTITLE7=Encore patché
TTITLE8=La game de hockey
TTITLE9=Nos amours
TTITLE10=Malchanceux
TTITLE11=Parti pour la chasse
TTITLE12=Les gros bras
TTITLE13=Prend cette fleur
EXTD=
EXTT0=
EXTT1=
EXTT2=
EXTT3=
EXTT4=
EXTT5=
EXTT6=
EXTT7=
EXTT8=
EXTT9=
EXTT10=
EXTT11=
EXTT12=
EXTT13=
PLAYORDER=
